Coordinates
version=1
nRows=10
nColumns=40
inDegrees=yes

Units are S.I. units (second, meters, Newtons, ...)
If the header above contains a line with 'inDegrees', this indicates whether rotational values are in degrees (yes) or radians (no).

endheader
time	pelvis_tilt	pelvis_list	pelvis_rotation	pelvis_tx	pelvis_ty	pelvis_tz	hip_flexion_r	hip_adduction_r	hip_rotation_r	knee_angle_r	knee_angle_r_beta	ankle_angle_r	subtalar_angle_r	mtp_angle_r	hip_flexion_l	hip_adduction_l	hip_rotation_l	knee_angle_l	knee_angle_l_beta	ankle_angle_l	subtalar_angle_l	mtp_angle_l	lumbar_extension	lumbar_bending	lumbar_rotation	arm_flex_r	arm_add_r	arm_rot_r	elbow_flex_r	pro_sup_r	wrist_flex_r	wrist_dev_r	arm_flex_l	arm_add_l	arm_rot_l	elbow_flex_l	pro_sup_l	wrist_flex_l	wrist_dev_l
      1.09200000	     17.72025191	      4.40966071	      3.46406130	      1.42502862	      0.96906004	     -0.38180847	      7.22918506	     -6.20331944	     -4.80943805	     26.07135255	      0.45503094	    -10.53841094	      0.00000000	      0.00000000	    -29.16740662	      7.86900152	      5.44259265	      5.00337560	      0.08732538	     -5.04269671	      0.00000000	      0.00000000	    -31.88969762	     -2.64821294	    -10.41775666	     -1.15957284	    -13.81318834	      4.49722086	     38.83871427	     75.68208036	      0.00000000	      0.00000000	      7.44829201	    -24.98255711	     22.89928270	     54.21245964	     77.94327436	      0.00000000	      0.00000000
      1.09600000	     17.48578774	      4.51388684	      3.36474303	      1.42945832	      0.96794877	     -0.38199416	      7.77912332	     -6.24930626	     -4.86475012	     25.00309233	      0.43638628	    -11.35425217	      0.00000000	      0.00000000	    -29.24014180	      8.02773775	      5.47267869	      4.99658850	      0.08720692	     -4.87524001	      0.00000000	      0.00000000	    -31.73238212	     -2.77247672	    -10.48992769	     -1.05837271	    -13.76659367	      4.60628125	     38.94612978	     75.54760594	      0.00000000	      0.00000000	      7.62279342	    -25.00958286	     22.86452615	     54.18428642	     77.93670648	      0.00000000	      0.00000000
      1.10000000	     17.25423516	      4.53835335	      3.35892588	      1.43426314	      0.96685094	     -0.38186304	      8.27569291	     -6.20900056	     -5.06734562	     24.00911809	      0.41903816	    -11.74211151	      0.00000000	      0.00000000	    -29.29329338	      8.06708729	      5.20544880	      5.04633280	      0.08807512	     -4.65319963	      0.00000000	      0.00000000	    -31.55273572	     -2.80191896	    -10.55026685	     -0.73182827	    -13.56246524	      4.48142633	     38.40705877	     75.49419155	      0.00000000	      0.00000000	      7.70324533	    -25.08393382	     22.85413921	     54.21303419	     78.07540008	      0.00000000	      0.00000000
      1.10400000	     17.00155466	      4.64352618	      3.23006736	      1.43887473	      0.96552486	     -0.38203700	      8.96577382	     -6.31146240	     -5.37049852	     23.35097665	      0.40755143	    -11.70370102	      0.00000000	      0.00000000	    -29.33651522	      8.25795936	      5.00452452	      5.07373945	      0.08855346	     -4.51205604	      0.00000000	      0.00000000	    -31.36530440	     -2.93762742	    -10.56591540	     -0.74672493	    -13.60415732	      4.59923541	     38.59761936	     75.48311130	      0.00000000	      0.00000000	      7.82193877	    -25.09368665	     22.85712179	     54.30080985	     78.07835169	      0.00000000	      0.00000000
      1.10800000	     16.70025511	      4.76392314	      3.10828106	      1.44383503	      0.96419464	     -0.38209843	      9.58110263	     -6.39240359	     -5.55614519	     22.47459675	      0.39225571	    -11.89800643	      0.00000000	      0.00000000	    -29.36799114	      8.43191144	      4.98148846	      5.09782356	      0.08897381	     -4.30519944	      0.00000000	      0.00000000	    -31.11056227	     -3.08303332	    -10.54398981	     -0.59220655	    -13.57969855	      4.56161926	     38.43980856	     75.46879410	      0.00000000	      0.00000000	      7.91483177	    -25.11462752	     22.88604556	     54.29606197	     78.07909088	      0.00000000	      0.00000000
      1.11200000	     16.41902476	      4.85090696	      3.04530854	      1.44846166	      0.96287167	     -0.38216143	     10.13845868	     -6.39018815	     -5.63875510	     21.51838376	      0.37556665	    -12.34934186	      0.00000000	      0.00000000	    -29.39109989	      8.54714525	      4.93281306	      5.11036104	      0.08919263	     -4.05799218	      0.00000000	      0.00000000	    -30.88329051	     -3.18121694	    -10.57180748	     -0.38811741	    -13.51097773	      4.58824678	     38.19977090	     75.44674747	      0.00000000	      0.00000000	      8.06064927	    -25.19701478	     22.97109019	     54.26121733	     78.12904591	      0.00000000	      0.00000000
      1.11600000	     16.24580678	      4.80515935	      2.99449587	      1.45286979	      0.96188113	     -0.38209683	     10.45663218	     -6.19819021	     -5.62844536	     20.28168443	      0.35398217	    -12.89574025	      0.00000000	      0.00000000	    -29.45872550	      8.51446894	      4.93933162	      5.20606980	      0.09086306	     -3.87770505	      0.00000000	      0.00000000	    -30.80667459	     -3.14724135	    -10.57860571	     -0.27829768	    -13.50897014	      4.85898546	     38.31083631	     75.30086771	      0.00000000	      0.00000000	      8.28185904	    -25.18924892	     23.02651773	     54.15382389	     78.09700022	      0.00000000	      0.00000000
      1.12000000	     15.97263212	      4.90484210	      2.87843947	      1.45779913	      0.96042551	     -0.38217529	     11.11062249	     -6.25497672	     -5.91325569	     19.66382115	      0.34319842	    -12.75689930	      0.00000000	      0.00000000	    -29.47358205	      8.67646088	      4.75268419	      5.28641590	      0.09226536	     -3.71403387	      0.00000000	      0.00000000	    -30.57360639	     -3.26902456	    -10.55835712	     -0.27168741	    -13.53461785	      4.83989822	     38.30201990	     75.29672270	      0.00000000	      0.00000000	      8.36925787	    -25.21552224	     23.00367829	     54.19465251	     78.08611343	      0.00000000	      0.00000000
      1.12400000	     15.73244064	      4.98907179	      2.73043201	      1.46262349	      0.95912538	     -0.38190422	     11.71121176	     -6.25697820	     -6.16935003	     19.01365949	      0.33185096	    -12.63203345	      0.00000000	      0.00000000	    -29.50568415	      8.83124195	      4.69783740	      5.38680398	      0.09401747	     -3.59199282	      0.00000000	      0.00000000	    -30.41789511	     -3.41598465	    -10.47626335	     -0.04378415	    -13.45787054	      4.76275565	     38.06717878	     75.30852308	      0.00000000	      0.00000000	      8.49605632	    -25.25483269	     23.03386641	     54.21452921	     78.08297394	      0.00000000	      0.00000000
      1.12800000	     15.53117196	      4.99944226	      2.71394081	      1.46726810	      0.95800714	     -0.38172481	     11.93997545	     -6.08250680	     -5.97936638	     17.70100422	      0.30894080	    -12.97432356	      0.00000000	      0.00000000	    -29.52318039	      8.82097349	      4.65562411	      5.57298238	      0.09726689	     -3.29053580	      0.00000000	      0.00000000	    -30.26566209	     -3.43665219	    -10.51178526	      0.29468378	    -13.29123151	      4.70496090	     37.48971722	     75.43212462	      0.00000000	      0.00000000	      8.71402962	    -25.33303683	     23.20305232	     54.04693612	     78.05053956	      0.00000000	      0.00000000
